:SAMPLES-PER-SECOND 24
:FULLY-SPECIFIED
:DEGREES
417
root  3.73545 41.0108 27.4121 -18.9709 45.0627 -25.4691
RightUpLeg  -11.9496 -1.63615 -9.37523
RightLeg  9.56095 -4.69164 -3.95417
RightFoot  -2.72785 0.0144958 -0.425392
RightToes  -2.08645e-008 3.77894e-005 6.81332e-007
Spine  0.90339 -1.42905 1.88813
Spine1  11.7037 -4.85111 11.1722
HEad  -19.0742 -23.3216 11.5184
LeftShoulder1  5.52191 -11.0579 -31.9256
LeftArm  10.8776 20.6494 -25.2878
LeftForeArm  113.244 -80.507 -98.2448
LeftHand  -0.190893 -4.44564 2.54425
RightShoulder  3.7314 6.3692 31.9086
RightArm  17.4095 -29.2045 12.4707
RightForeArm  150.966 74.5861 141.927
RightHand  0.0145653 7.82584 -0.240783
LeftUpLeg  -11.0588 -3.63943 6.01072
LeftLeg  30.3316 9.58315 6.35111
LeftFoot  -1.78452 0.310044 -3.62247
LeftToes  1.24767e-006 1.47042e-008 1.32732e-009
418
root  4.21331 40.0411 27.1549 -9.69897 40.1461 -19.7416
RightUpLeg  -11.7892 3.9301 -7.24654
RightLeg  14.3196 -7.62959 -3.78876
RightFoot  -5.6947 -0.0583997 0.400215
RightToes  -2.08645e-008 3.77894e-005 6.81332e-007
Spine  -0.986157 -0.689848 -0.416198
Spine1  10.2248 -3.58595 10.2836
HEad  -23.3741 -20.6544 12.3103
LeftShoulder1  5.1729 -10.7872 -30.1851
LeftArm  12.5156 10.7359 -21.7785
LeftForeArm  114.361 -80.1578 -103.386
LeftHand  -0.134169 -4.25013 1.8956
RightShoulder  3.54125 6.16563 30.7249
RightArm  18.108 -31.5798 11.5243
RightForeArm  150.482 73.97 143.324
RightHand  -0.090205 7.7753 -1.16523
LeftUpLeg  -15.3494 -14.028 7.66049
LeftLeg  25.8535 8.86691 4.98695
LeftFoot  -8.86187 0.19093 -6.36896
LeftToes  1.24767e-006 1.47042e-008 1.32732e-009
419
root  4.53892 38.9542 26.6247 -1.3468 31.3653 -11.7475
RightUpLeg  -11.6711 10.9298 -8.99237
RightLeg  20.5549 -10.2788 -4.321
RightFoot  -8.84825 -0.0600939 0.0289605
RightToes  -2.08645e-008 3.77894e-005 6.81332e-007
Spine  0.200699 0.516435 -5.72823
Spine1  8.64774 -1.66502 8.34559
HEad  -28.6 -15.7737 11.3672
LeftShoulder1  5.09539 -10.7241 -29.7944
LeftArm  9.04289 2.59264 -15.6377
LeftForeArm  107.943 -80.2256 -98.5684
LeftHand  -0.32591 -3.27906 4.60237
RightShoulder  3.34385 5.95809 29.4203
RightArm  17.4728 -27.8121 13.9516
RightForeArm  149.33 74.9632 140.56
RightHand  -0.129143 8.60216 -1.45801
LeftUpLeg  -18.6571 -7.88612 2.2816
LeftLeg  26.9878 7.07969 4.26587
LeftFoot  -11.9372 0.0612685 -1.06221
LeftToes  1.24767e-006 1.47042e-008 1.32732e-009
420
root  5.06259 38.2269 25.7446 1.89233 20.2658 -7.99017
RightUpLeg  -10.265 12.2207 -8.61527
RightLeg  26.7761 -10.6597 -6.02044
RightFoot  -11.817 -0.0820287 -0.297931
RightToes  -2.08645e-008 3.77894e-005 6.81332e-007
Spine  2.92142 1.46298 -6.90149
Spine1  8.15138 -0.367803 6.5418
HEad  -33.6614 -9.15819 8.07839
LeftShoulder1  5.28517 -10.9408 -30.5825
LeftArm  2.15978 -0.282674 -10.3452
LeftForeArm  84.0305 -79.935 -72.9905
LeftHand  -0.690226 -2.43701 10.4075
RightShoulder  3.32016 6.02599 28.9061
RightArm  15.1048 -19.1126 20.1028
RightForeArm  132.952 78.8582 120.831
RightHand  -0.0811612 9.07161 -1.0418
LeftUpLeg  -22.1068 0.548414 -3.60109
LeftLeg  31.4705 12.1405 8.31949
LeftFoot  -12.1321 0.103551 4.84985
LeftToes  1.24767e-006 1.47042e-008 1.32732e-009
421
root  6.02293 38.2121 24.9937 3.72693 7.9016 -8.24854
RightUpLeg  -8.39589 9.6356 -6.26118
RightLeg  29.8887 -13.0841 -8.23257
RightFoot  -12.6008 -0.10247 -1.58354
RightToes  -2.08645e-008 3.77894e-005 6.81332e-007
Spine  3.51855 2.51837 -2.43719
Spine1  7.9891 1.3735 4.16252
HEad  -35.911 -3.24284 3.521
LeftShoulder1  5.5344 -11.2819 -31.4314
LeftArm  -3.56027 3.74427 -10.6547
LeftForeArm  70.328 -79.0394 -61.3882
LeftHand  -0.852437 -1.54025 14.445
RightShoulder  3.44203 6.22168 29.4692
RightArm  13.4716 -14.7341 26.0246
RightForeArm  117.05 80.366 102.672
RightHand  -0.346256 8.7025 -3.23556
LeftUpLeg  -23.9435 4.15299 -4.33686
LeftLeg  31.3358 20.0262 12.9821
LeftFoot  -11.1865 0.0621179 4.85067
LeftToes  1.24767e-006 1.47042e-008 1.32732e-009
422
root  7.12069 38.8756 24.4837 6.47363 -4.81177 -9.10364
RightUpLeg  -7.35952 3.74208 -4.88864
RightLeg  30.0809 -15.3843 -9.64743
RightFoot  -11.7075 -0.0867256 -2.36931
RightToes  -2.08645e-008 3.77894e-005 6.81332e-007
Spine  2.63389 3.78909 2.09219
Spine1  7.33977 3.37731 1.62388
HEad  -34.9981 2.53214 -0.732188
LeftShoulder1  5.82047 -11.5604 -32.6417
LeftArm  -6.18713 12.023 -14.1585
LeftForeArm  90.0239 -80.0036 -87.7577
LeftHand  -0.752243 -0.797484 14.2268
RightShoulder  3.58953 6.34431 30.5465
RightArm  14.8132 -16.8089 28.6531
RightForeArm  131.544 79.2809 118.228
RightHand  -0.324386 8.83275 -3.02973
LeftUpLeg  -23.2399 10.2386 -4.47081
LeftLeg  24.2285 23.754 11.5178
LeftFoot  -7.69066 -0.106338 4.78603
LeftToes  1.24767e-006 1.47042e-008 1.32732e-009
423
root  8.02576 39.8568 23.9153 9.26282 -15.4967 -9.9342
RightUpLeg  -7.3772 -2.93297 -3.75854
RightLeg  30.973 -13.716 -8.94849
RightFoot  -9.7416 -0.0699095 -0.00322996
RightToes  -2.08645e-008 3.77894e-005 6.81332e-007
Spine  1.91658 4.14195 3.92718
Spine1  7.0249 3.98916 0.377669
HEad  -33.6239 9.1906 -3.57916
LeftShoulder1  5.94558 -11.58 -33.4187
LeftArm  -6.24221 20.3396 -18.9274
LeftForeArm  123.925 -78.1283 -122.893
LeftHand  -0.67455 -1.20627 12.0194
RightShoulder  3.7553 6.51287 31.5997
RightArm  18.2368 -19.6281 29.074
RightForeArm  144.003 77.3408 131.826
RightHand  -0.262647 9.1805 -2.47991
LeftUpLeg  -21.531 11.7032 -2.2017
LeftLeg  15.8225 31.8301 6.20931
LeftFoot  -1.02559 -0.339968 3.95385
LeftToes  1.24767e-006 1.47042e-008 1.32732e-009
424
root  8.69012 40.8248 23.1879 11.6038 -22.9713 -10.8375
RightUpLeg  -7.28469 -7.6158 -1.72701
RightLeg  33.1219 -8.68277 -6.28865
RightFoot  -3.66984 -0.325147 4.36086
RightToes  -2.08645e-008 3.77894e-005 6.81332e-007
Spine  1.29657 3.42434 3.2566
Spine1  7.0588 2.9834 1.35648
HEad  -32.6172 15.3661 -4.78516
LeftShoulder1  5.92973 -11.5239 -33.4603
LeftArm  -4.77482 25.0952 -24.9629
LeftForeArm  139.973 -76.3974 -134.444
LeftHand  -0.577486 -1.10336 10.4585
RightShoulder  3.93269 6.73777 32.513
RightArm  20.993 -21.6755 28.3325
RightForeArm  148.039 76.6049 135.433
RightHand  -0.0524103 9.24082 -0.812504
LeftUpLeg  -20.3718 8.7017 2.14876
LeftLeg  9.37476 38.4472 0.383005
LeftFoot  6.83828 -0.172358 0.851686
LeftToes  1.24767e-006 1.47042e-008 1.32732e-009
425
root  9.23976 41.3993 22.3834 12.9901 -28.3168 -10.7465
RightUpLeg  -6.34322 -11.0373 -0.540342
RightLeg  34.9318 -1.5414 -1.41049
RightFoot  2.911 -1.36533 10.9293
RightToes  -2.08645e-008 3.77894e-005 6.81332e-007
Spine  0.551687 2.44977 1.39022
Spine1  7.16335 1.68764 2.59742
HEad  -31.1788 19.8844 -5.35684
LeftShoulder1  6.04722 -11.6778 -33.8304
LeftArm  -1.20686 24.9575 -28.9975
LeftForeArm  142.952 -76.3647 -135.141
LeftHand  -0.509256 -1.01594 9.36038
RightShoulder  4.0196 6.83102 33.0079
RightArm  22.654 -24.3685 27.0509
RightForeArm  147.579 76.3785 136.087
RightHand  0.19581 9.46904 1.12367
LeftUpLeg  -20.8649 9.3421 3.2898
LeftLeg  7.74978 29.1127 -1.30302
LeftFoot  13.3133 0.130835 -0.9757
LeftToes  1.24767e-006 1.47042e-008 1.32732e-009
426
root  9.82657 41.3384 21.5431 13.6689 -33.7044 -9.70551
RightUpLeg  -5.39062 -12.3981 -0.626956
RightLeg  36.7943 5.98383 4.53057
RightFoot  4.48845 -2.75691 19.8702
RightToes  -2.08645e-008 3.77894e-005 6.81332e-007
Spine  -0.222245 1.9072 0.418095
Spine1  7.64268 1.31582 1.74037
HEad  -30.4615 23.1453 -6.88636
LeftShoulder1  6.19068 -11.8185 -34.3949
LeftArm  3.40236 21.9132 -30.3019
LeftForeArm  146.663 -76.3053 -136.149
LeftHand  -0.49701 -2.15811 7.84417
RightShoulder  4.02156 6.79694 33.1557
RightArm  23.5386 -26.8373 25.9151
RightForeArm  144.808 76.4929 135.091
RightHand  -0.00496758 9.20456 -0.436418
LeftUpLeg  -22.9957 7.79317 3.06923
LeftLeg  11.0145 14.241 0.973981
LeftFoot  14.8519 0.784716 -3.76614
LeftToes  1.24767e-006 1.47042e-008 1.32732e-009
